<?xml version="1.0" standalone="no"?>
<!DOCTYPE svg PUBLIC "-//W3C//DTD SVG 20010904//EN"
 "http://www.w3.org/TR/2001/REC-SVG-20010904/DTD/svg10.dtd">
<svg version="1.0" xmlns="http://www.w3.org/2000/svg"
 width="300.000000pt" height="300.000000pt" viewBox="0 0 300.000000 300.000000"
 preserveAspectRatio="xMidYMid meet">
<metadata>
Created by potrace 1.14, written by Peter Selinger 2001-2017
</metadata>
<g transform="translate(0.000000,300.000000) scale(0.100000,-0.100000)"
fill="#000000" stroke="none">
<path d="M1355 2994 c-229 -33 -375 -77 -543 -164 -413 -214 -698 -599 -789
-1065 -25 -128 -24 -396 1 -530 114 -611 570 -1074 1186 -1206 151 -33 429
-33 580 0 460 98 829 376 1039 781 68 132 110 249 142 400 19 87 23 136 23
290 0 154 -4 203 -23 290 -98 460 -377 830 -781 1039 -217 112 -401 159 -650
165 -85 3 -168 2 -185 0z m515 -971 l0 -268 43 47 c26 28 68 59 103 75 53 25
70 28 164 28 100 0 108 -2 182 -37 135 -64 209 -161 264 -343 33 -112 38 -290
11 -395 -74 -284 -289 -453 -528 -412 -88 15 -139 41 -195 99 l-44 47 0 -52 0
-52 -150 0 -150 0 0 765 0 765 150 0 150 0 0 -267z m-865 -128 c187 -39 311
-157 331 -312 l7 -53 -140 0 -140 0 -6 29 c-10 47 -61 97 -111 110 -104 26
-229 2 -256 -49 -18 -33 -8 -81 20 -102 14 -10 126 -47 250 -83 289 -84 333
-107 383 -200 18 -33 22 -57 22 -140 0 -88 -3 -106 -27 -155 -50 -102 -132
-166 -263 -207 -81 -24 -319 -24 -418 0 -188 47 -281 142 -312 320 l-6 37 145
0 145 0 11 -40 c21 -77 117 -118 255 -107 116 9 185 50 185 109 0 51 -35 72
-211 128 -283 88 -353 114 -393 145 -137 105 -118 364 35 484 50 40 131 76
204 91 66 13 216 11 290 -5z"/>
<path d="M2051 1655 c-58 -18 -113 -74 -147 -149 -22 -49 -28 -80 -32 -159
-11 -238 82 -387 243 -387 97 0 162 48 212 155 26 56 28 68 28 195 0 128 -2
138 -29 198 -35 77 -98 135 -161 151 -53 13 -59 13 -114 -4z"/>
</g>
</svg>
